<svg xmlns="http://www.w3.org/2000/svg" version="1.1" xmlns:xlink="http://www.w3.org/1999/xlink" xmlns:svgjs="http://svgjs.dev/svgjs" width="1500" height="189" viewBox="0 0 1500 189"><g transform="matrix(1,0,0,1,-0.9090909090909918,0.28055334712503566)"><svg viewBox="0 0 396 50" data-background-color="#60777f" preserveAspectRatio="xMidYMid meet" height="189" width="1500" xmlns="http://www.w3.org/2000/svg" xmlns:xlink="http://www.w3.org/1999/xlink"><g id="tight-bounds" transform="matrix(1,0,0,1,0.2400000000000091,-0.07422046220239054)"><svg viewBox="0 0 395.52 50.1484409244048" height="50.1484409244048" width="395.52"><g><svg viewBox="0 0 429.4391870495796 54.44909410998247" height="50.1484409244048" width="395.52"><g transform="matrix(1,0,0,1,0,7.525164236618419)"><svg viewBox="0 0 395.52 39.39876563674563" height="39.39876563674563" width="395.52"><g id="textblocktransform"><svg viewBox="0 0 395.52 39.39876563674563" height="39.39876563674563" width="395.52" id="textblock"><g><svg viewBox="0 0 395.52 39.39876563674563" height="39.39876563674563" width="395.52"><g transform="matrix(1,0,0,1,0,0)"><svg width="395.52" viewBox="0.98 -32.42 436.71999999999997 43.50171869165101" height="39.39876563674563" data-palette-color="#ffffff"><g class="wordmark-text-0" data-fill-palette-color="primary" id="text-0"><path d="M17.38-32.37L17.82-32.23 27.59-6.45Q28.47-4.15 29-2.93L29-2.93Q29.3-2.2 30.52-1.73 31.74-1.27 32.32-1.27L32.32-1.27Q32.52-1.27 32.52-0.34L32.52-0.34Q32.52-0.15 32.42 0.15L32.42 0.15Q27.54-0.1 27.05-0.1L27.05-0.1Q27-0.1 21.39 0.15L21.39 0.15Q21.19-0.05 21.22-0.66 21.24-1.27 21.44-1.27L21.44-1.27Q22.02-1.27 22.9-1.51 23.78-1.76 23.93-2.15L23.93-2.15Q24.02-2.54 24.02-2.93L24.02-2.93Q24.02-3.56 23.85-4.42 23.68-5.27 23.54-5.76L23.54-5.76 23.34-6.3 21.34-11.82Q21.19-12.01 21.04-12.01L21.04-12.01Q19.14-12.16 17.33-12.16L17.33-12.16Q14.79-12.16 11.13-11.91L11.13-11.91 10.89-11.77 8.79-6.4Q7.96-3.96 7.96-3.03L7.96-3.03Q7.96-2.34 8.35-2.05L8.35-2.05Q8.79-1.71 9.77-1.49 10.74-1.27 11.18-1.27L11.18-1.27Q11.33-1.27 11.35-0.68 11.38-0.1 11.28 0.15L11.28 0.15Q6.4-0.1 6.25-0.1L6.25-0.1Q5.27-0.1 4.54-0.05 3.81 0 2.91 0.05 2 0.1 1.17 0.15L1.17 0.15Q0.98-0.05 0.98-0.59L0.98-0.59Q0.98-1.27 1.17-1.27L1.17-1.27Q1.76-1.27 2.69-1.51 3.61-1.76 3.96-2.2L3.96-2.2Q4.98-3.52 6.25-6.79L6.25-6.79 14.75-28.61Q14.84-28.86 15.01-29.39 15.19-29.93 15.28-30.2 15.38-30.47 15.58-30.88 15.77-31.3 15.92-31.49 16.06-31.69 16.28-31.93 16.5-32.18 16.77-32.28 17.04-32.37 17.38-32.37L17.38-32.37ZM12.16-14.6L12.16-14.6Q14.7-14.5 15.63-14.5L15.63-14.5Q17.77-14.5 20.07-14.65L20.07-14.65 20.21-14.89 16.26-25.68 12.06-14.79Q12.06-14.6 12.16-14.6ZM49.12-21.39L49.12-21.39Q52.54-21.39 53.9-18.95 55.27-16.5 55.27-11.04L55.27-11.04 55.27-6.59Q55.27-3.76 55.66-2.25L55.66-2.25Q55.76-1.9 56.93-1.59 58.1-1.27 58.59-1.27L58.59-1.27Q58.74-1.27 58.79-0.68 58.84-0.1 58.74 0.15L58.74 0.15Q53.85-0.1 53.51-0.1L53.51-0.1Q53.42-0.1 48.39 0.15L48.39 0.15Q48.19-0.05 48.19-0.66 48.19-1.27 48.39-1.27L48.39-1.27Q48.97-1.27 50.02-1.59 51.07-1.9 51.17-2.25L51.17-2.25Q51.51-3.66 51.51-5.66L51.51-5.66 51.51-10.55Q51.51-15.09 50.34-16.75 49.17-18.41 46.53-18.41L46.53-18.41Q44.97-18.41 43.53-17.26 42.09-16.11 42.09-15.19L42.09-15.19 42.09-6.59Q42.09-3.76 42.48-2.25L42.48-2.25Q42.58-1.9 43.75-1.59 44.92-1.27 45.41-1.27L45.41-1.27Q45.55-1.27 45.6-0.68 45.65-0.1 45.55 0.15L45.55 0.15Q40.67-0.1 40.33-0.1L40.33-0.1Q40.04-0.1 35.01 0.15L35.01 0.15Q34.81-0.05 34.81-0.66 34.81-1.27 35.01-1.27L35.01-1.27Q35.59-1.27 36.74-1.59 37.89-1.9 37.99-2.25L37.99-2.25Q38.33-3.66 38.33-5.66L38.33-5.66 38.33-14.89Q38.33-16.8 37.64-17.53L37.64-17.53Q37.16-18.12 36.45-18.33 35.74-18.55 35.28-18.55 34.81-18.55 34.81-18.65L34.81-18.65Q34.81-19.82 35.1-19.87L35.1-19.87Q40.28-20.65 41.84-21.14L41.84-21.14Q41.89-21.14 41.99-21.17 42.09-21.19 42.09-21.19L42.09-21.19Q42.28-21.19 42.33-20.78 42.38-20.36 42.33-20.17L42.33-20.17Q42.14-18.8 42.14-18.21L42.14-18.21Q42.14-18.02 42.23-18.02L42.23-18.02Q42.28-18.02 42.38-18.12L42.38-18.12Q43.5-19.29 45.43-20.34 47.36-21.39 49.12-21.39ZM66.74-3.15Q67.57-2.44 68.89-2.44 70.21-2.44 71.43-3.25 72.65-4.05 72.65-4.88L72.65-4.88 72.65-9.91Q72.26-9.72 70.75-9.23 69.23-8.74 68.38-8.37 67.52-8.01 66.72-7.15 65.91-6.3 65.91-5.18L65.91-5.18Q65.91-3.86 66.74-3.15ZM71.33-21.29L71.33-21.29Q74.02-21.29 75.19-20 76.36-18.7 76.36-15.82L76.36-15.82 76.36-4.54Q76.36-3.52 76.9-2.83 77.44-2.15 78.36-2.15L78.36-2.15Q79.05-2.15 80.07-2.83L80.07-2.83Q80.27-2.83 80.27-2.44L80.27-2.44Q80.27-1.81 80.02-1.42L80.02-1.42Q78.02 0.29 76.61 0.29L76.61 0.29Q75.48 0.29 74.46-0.63 73.43-1.56 73.04-2.59L73.04-2.59Q72.99-2.59 72.68-2.27 72.36-1.95 71.82-1.54 71.28-1.12 70.58-0.68 69.87-0.24 68.92 0.05 67.96 0.34 66.99 0.34L66.99 0.34Q64.74 0.34 63.28-0.85 61.81-2.05 61.81-4.44L61.81-4.44Q61.81-5.52 62.35-6.47 62.89-7.42 63.62-8.03 64.35-8.64 65.62-9.28 66.89-9.91 67.79-10.23 68.7-10.55 70.16-11.04 71.63-11.52 72.21-11.77L72.21-11.77Q72.65-11.91 72.65-12.5L72.65-12.5 72.65-16.16Q72.65-17.72 71.67-18.58 70.7-19.43 69.33-19.43L69.33-19.43Q67.87-19.43 66.89-18.43 65.91-17.43 65.91-15.82L65.91-15.82Q65.91-14.11 63.91-14.11L63.91-14.11Q62.54-14.11 62.01-15.04L62.01-15.04Q62.01-17.14 65.08-19.21 68.16-21.29 71.33-21.29ZM89.89-21.34L89.89-21.34Q90.96-21.34 92.6-21.07 94.23-20.8 94.87-20.7L94.87-20.7Q95.35-18.46 95.45-15.72L95.45-15.72Q95.45-15.48 94.82-15.48L94.82-15.48Q94.13-15.48 94.08-15.82L94.08-15.82Q93.84-17.19 92.69-18.41 91.55-19.63 90.08-19.63L90.08-19.63Q86.56-19.63 86.56-16.75L86.56-16.75Q86.56-16.02 86.76-15.45 86.96-14.89 87.52-14.38 88.08-13.87 88.37-13.65 88.66-13.43 89.67-12.87 90.67-12.3 90.91-12.16L90.91-12.16Q91.11-12.06 92.06-11.5 93.01-10.94 93.4-10.69 93.79-10.45 94.55-9.86 95.31-9.28 95.65-8.81 95.99-8.35 96.31-7.64 96.62-6.93 96.62-6.2L96.62-6.2Q96.62-3.32 94.38-1.39 92.13 0.54 89.1 0.54L89.1 0.54Q88.08 0.54 87.22 0.42 86.37 0.29 85.2 0 84.03-0.29 83.39-0.39L83.39-0.39Q83.1-1.17 82.83-2.83 82.56-4.49 82.56-5.47L82.56-5.47Q82.95-5.76 83.15-5.76L83.15-5.76Q83.88-5.76 83.93-5.47L83.93-5.47Q84.22-4 85.76-2.61 87.3-1.22 89.1-1.22L89.1-1.22Q90.67-1.22 91.67-2.08 92.67-2.93 92.67-4.54L92.67-4.54Q92.67-5.37 92.35-6.08 92.03-6.79 91.33-7.35 90.62-7.91 90.01-8.28 89.4-8.64 88.27-9.23 87.15-9.81 86.61-10.16L86.61-10.16Q82.81-12.35 82.81-15.38L82.81-15.38Q82.81-18.02 84.93-19.68 87.05-21.34 89.89-21.34ZM101.99-5.86L101.99-18.26 99.16-18.26Q98.92-18.26 98.92-19.29L98.92-19.29Q98.92-19.58 98.96-19.63L98.96-19.63Q100.38-20.26 102.04-22.22L102.04-22.22Q102.58-22.85 103.09-23.66 103.6-24.46 103.95-25.05 104.29-25.63 104.29-25.68L104.29-25.68Q105.75-25.68 105.75-25.44L105.75-25.44 105.75-20.61Q107.02-20.61 109.61-20.58 112.2-20.56 112.34-20.56L112.34-20.56Q112.73-20.56 112.73-20.12L112.73-20.12Q112.73-19.24 112.25-18.26L112.25-18.26 105.75-18.26 105.75-6.3Q105.75-4.35 106.75-3.17 107.75-2 109.37-2L109.37-2Q110.83-2 112.39-2.93L112.39-2.93Q112.54-3.03 112.83-2.51 113.12-2 113.08-1.95L113.08-1.95Q112.34-1.17 110.83-0.42 109.32 0.34 107.7 0.34L107.7 0.34Q105.26 0.34 103.63-1.27 101.99-2.88 101.99-5.86L101.99-5.86ZM120.25-3.15Q121.08-2.44 122.4-2.44 123.72-2.44 124.94-3.25 126.16-4.05 126.16-4.88L126.16-4.88 126.16-9.91Q125.77-9.72 124.26-9.23 122.74-8.74 121.89-8.37 121.03-8.01 120.23-7.15 119.42-6.3 119.42-5.18L119.42-5.18Q119.42-3.86 120.25-3.15ZM124.84-21.29L124.84-21.29Q127.53-21.29 128.7-20 129.87-18.7 129.87-15.82L129.87-15.82 129.87-4.54Q129.87-3.52 130.41-2.83 130.94-2.15 131.87-2.15L131.87-2.15Q132.56-2.15 133.58-2.83L133.58-2.83Q133.78-2.83 133.78-2.44L133.78-2.44Q133.78-1.81 133.53-1.42L133.53-1.42Q131.53 0.29 130.11 0.29L130.11 0.29Q128.99 0.29 127.97-0.63 126.94-1.56 126.55-2.59L126.55-2.59Q126.5-2.59 126.18-2.27 125.87-1.95 125.33-1.54 124.79-1.12 124.08-0.68 123.38-0.24 122.42 0.05 121.47 0.34 120.5 0.34L120.5 0.34Q118.25 0.34 116.78-0.85 115.32-2.05 115.32-4.44L115.32-4.44Q115.32-5.52 115.86-6.47 116.39-7.42 117.13-8.03 117.86-8.64 119.13-9.28 120.4-9.91 121.3-10.23 122.2-10.55 123.67-11.04 125.13-11.52 125.72-11.77L125.72-11.77Q126.16-11.91 126.16-12.5L126.16-12.5 126.16-16.16Q126.16-17.72 125.18-18.58 124.21-19.43 122.84-19.43L122.84-19.43Q121.37-19.43 120.4-18.43 119.42-17.43 119.42-15.82L119.42-15.82Q119.42-14.11 117.42-14.11L117.42-14.11Q116.05-14.11 115.51-15.04L115.51-15.04Q115.51-17.14 118.59-19.21 121.67-21.29 124.84-21.29ZM143.39-21.34L143.39-21.34Q144.47-21.34 146.1-21.07 147.74-20.8 148.37-20.7L148.37-20.7Q148.86-18.46 148.96-15.72L148.96-15.72Q148.96-15.48 148.32-15.48L148.32-15.48Q147.64-15.48 147.59-15.82L147.59-15.82Q147.35-17.19 146.2-18.41 145.05-19.63 143.59-19.63L143.59-19.63Q140.07-19.63 140.07-16.75L140.07-16.75Q140.07-16.02 140.27-15.45 140.46-14.89 141.03-14.38 141.59-13.87 141.88-13.65 142.17-13.43 143.17-12.87 144.17-12.3 144.42-12.16L144.42-12.16Q144.61-12.06 145.57-11.5 146.52-10.94 146.91-10.69 147.3-10.45 148.06-9.86 148.81-9.28 149.15-8.81 149.5-8.35 149.81-7.64 150.13-6.93 150.13-6.2L150.13-6.2Q150.13-3.32 147.89-1.39 145.64 0.54 142.61 0.54L142.61 0.54Q141.59 0.54 140.73 0.42 139.88 0.29 138.71 0 137.53-0.29 136.9-0.39L136.9-0.39Q136.61-1.17 136.34-2.83 136.07-4.49 136.07-5.47L136.07-5.47Q136.46-5.76 136.65-5.76L136.65-5.76Q137.39-5.76 137.44-5.47L137.44-5.47Q137.73-4 139.27-2.61 140.81-1.22 142.61-1.22L142.61-1.22Q144.17-1.22 145.18-2.08 146.18-2.93 146.18-4.54L146.18-4.54Q146.18-5.37 145.86-6.08 145.54-6.79 144.83-7.35 144.13-7.91 143.52-8.28 142.9-8.64 141.78-9.23 140.66-9.81 140.12-10.16L140.12-10.16Q136.31-12.35 136.31-15.38L136.31-15.38Q136.31-18.02 138.44-19.68 140.56-21.34 143.39-21.34ZM156.45-27.22Q155.74-27.93 155.74-28.96 155.74-29.98 156.45-30.69 157.16-31.4 158.19-31.4 159.21-31.4 159.92-30.69 160.63-29.98 160.63-28.96 160.63-27.93 159.92-27.22 159.21-26.51 158.19-26.51 157.16-26.51 156.45-27.22ZM160.43-16.65L160.43-6.59Q160.43-3.76 160.82-2.25L160.82-2.25Q160.92-1.9 162.09-1.59 163.26-1.27 163.75-1.27L163.75-1.27Q163.9-1.27 163.95-0.68 164-0.1 163.9 0.15L163.9 0.15Q159.02-0.1 158.67-0.1 158.33-0.1 153.35 0.15L153.35 0.15Q153.16-0.05 153.16-0.66 153.16-1.27 153.35-1.27L153.35-1.27Q153.94-1.27 155.09-1.59 156.23-1.9 156.33-2.25L156.33-2.25Q156.67-3.66 156.67-5.66L156.67-5.66 156.67-14.89Q156.67-16.8 155.99-17.53L155.99-17.53Q155.5-18.12 154.79-18.33 154.08-18.55 153.62-18.55 153.16-18.55 153.16-18.65L153.16-18.65Q153.16-19.82 153.45-19.87L153.45-19.87Q158.63-20.65 160.19-21.14L160.19-21.14 160.29-21.19Q160.38-21.19 160.43-21.19L160.43-21.19Q160.63-21.19 160.68-20.78 160.72-20.36 160.68-20.17L160.68-20.17Q160.43-18.21 160.43-16.65L160.43-16.65ZM171.56-3.15Q172.39-2.44 173.71-2.44 175.03-2.44 176.25-3.25 177.47-4.05 177.47-4.88L177.47-4.88 177.47-9.91Q177.08-9.72 175.57-9.23 174.05-8.74 173.2-8.37 172.34-8.01 171.54-7.15 170.73-6.3 170.73-5.18L170.73-5.18Q170.73-3.86 171.56-3.15ZM176.15-21.29L176.15-21.29Q178.84-21.29 180.01-20 181.18-18.7 181.18-15.82L181.18-15.82 181.18-4.54Q181.18-3.52 181.72-2.83 182.26-2.15 183.18-2.15L183.18-2.15Q183.87-2.15 184.89-2.83L184.89-2.83Q185.09-2.83 185.09-2.44L185.09-2.44Q185.09-1.81 184.84-1.42L184.84-1.42Q182.84 0.29 181.43 0.29L181.43 0.29Q180.3 0.29 179.28-0.63 178.25-1.56 177.86-2.59L177.86-2.59Q177.81-2.59 177.49-2.27 177.18-1.95 176.64-1.54 176.1-1.12 175.4-0.68 174.69-0.24 173.73 0.05 172.78 0.34 171.81 0.34L171.81 0.34Q169.56 0.34 168.1-0.85 166.63-2.05 166.63-4.44L166.63-4.44Q166.63-5.52 167.17-6.47 167.7-7.42 168.44-8.03 169.17-8.64 170.44-9.28 171.71-9.91 172.61-10.23 173.52-10.55 174.98-11.04 176.44-11.52 177.03-11.77L177.03-11.77Q177.47-11.91 177.47-12.5L177.47-12.5 177.47-16.16Q177.47-17.72 176.49-18.58 175.52-19.43 174.15-19.43L174.15-19.43Q172.69-19.43 171.71-18.43 170.73-17.43 170.73-15.82L170.73-15.82Q170.73-14.11 168.73-14.11L168.73-14.11Q167.36-14.11 166.83-15.04L166.83-15.04Q166.83-17.14 169.9-19.21 172.98-21.29 176.15-21.29ZM192.8-32.03L192.8-32.03Q195-32.03 200.42-32.23 205.84-32.42 208.57-32.42L208.57-32.42Q208.77-31.01 209.33-28.69 209.89-26.37 209.99-25.78L209.99-25.78Q209.74-25.54 209.11-25.54 208.47-25.54 208.42-25.88L208.42-25.88Q207.69-28.56 206.37-29.32 205.06-30.08 202.76-30.08L202.76-30.08 199.49-30.08Q195.29-30.08 195.19-29.44L195.19-29.44Q194.95-28.27 194.95-25.34L194.95-25.34 194.95-17.53Q194.95-17.24 197.05-17.24L197.05-17.24 199.64-17.24Q201-17.24 201.61-17.24 202.22-17.24 202.91-17.43 203.59-17.63 203.79-17.68 203.98-17.72 204.3-18.31 204.62-18.9 204.67-19.17 204.71-19.43 205.01-20.56L205.01-20.56Q205.06-20.9 205.74-20.9L205.74-20.9Q206.33-20.9 206.57-20.65L206.57-20.65 206.57-11.43Q206.37-11.23 205.79-11.23L205.79-11.23Q205.15-11.23 205.01-11.62L205.01-11.62Q204.67-12.94 204.42-13.6 204.18-14.26 204.05-14.38 203.93-14.5 203.64-14.7L203.64-14.7Q203-15.09 198.46-15.09L198.46-15.09Q194.95-15.09 194.95-14.65L194.95-14.65 194.95-7.08Q194.95-3.91 195.39-2.64L195.39-2.64Q195.53-2.15 198.71-2.15L198.71-2.15 201.05-2.15Q205.59-2.15 207.2-2.98L207.2-2.98Q207.94-3.37 208.84-4.71 209.74-6.05 210.28-7.91L210.28-7.91Q210.38-8.2 210.96-8.2L210.96-8.2Q211.89-8.2 212.18-7.91L212.18-7.91Q211.94-7.28 211.43-5.88 210.92-4.49 210.62-3.64 210.33-2.78 209.99-1.66 209.65-0.54 209.55 0.2L209.55 0.2Q207.06 0.2 201.69 0.1 196.32 0 192.9 0L192.9 0 186.99 0.15Q186.84 0 186.84-0.63 186.84-1.27 186.99-1.27L186.99-1.27Q187.62-1.27 188.87-1.61 190.11-1.95 190.36-2.39L190.36-2.39Q190.7-2.98 190.7-6.98L190.7-6.98 190.7-25.44Q190.7-28.32 190.36-29.64L190.36-29.64Q190.21-30.03 188.92-30.37 187.62-30.71 186.99-30.71L186.99-30.71Q186.79-30.71 186.79-31.3L186.79-31.3Q186.79-31.93 186.99-32.13L186.99-32.13Q189.53-32.03 192.8-32.03ZM228.98-21.39L228.98-21.39Q232.4-21.39 233.76-18.95 235.13-16.5 235.13-11.04L235.13-11.04 235.13-6.59Q235.13-3.76 235.52-2.25L235.52-2.25Q235.62-1.9 236.79-1.59 237.96-1.27 238.45-1.27L238.45-1.27Q238.6-1.27 238.65-0.68 238.7-0.1 238.6 0.15L238.6 0.15Q233.72-0.1 233.37-0.1L233.37-0.1Q233.28-0.1 228.25 0.15L228.25 0.15Q228.05-0.05 228.05-0.66 228.05-1.27 228.25-1.27L228.25-1.27Q228.83-1.27 229.88-1.59 230.93-1.9 231.03-2.25L231.03-2.25Q231.37-3.66 231.37-5.66L231.37-5.66 231.37-10.55Q231.37-15.09 230.2-16.75 229.03-18.41 226.39-18.41L226.39-18.41Q224.83-18.41 223.39-17.26 221.95-16.11 221.95-15.19L221.95-15.19 221.95-6.59Q221.95-3.76 222.34-2.25L222.34-2.25Q222.44-1.9 223.61-1.59 224.78-1.27 225.27-1.27L225.27-1.27Q225.41-1.27 225.46-0.68 225.51-0.1 225.41 0.15L225.41 0.15Q220.53-0.1 220.19-0.1L220.19-0.1Q219.9-0.1 214.87 0.15L214.87 0.15Q214.67-0.05 214.67-0.66 214.67-1.27 214.87-1.27L214.87-1.27Q215.45-1.27 216.6-1.59 217.75-1.9 217.85-2.25L217.85-2.25Q218.19-3.66 218.19-5.66L218.19-5.66 218.19-14.89Q218.19-16.8 217.5-17.53L217.5-17.53Q217.02-18.12 216.31-18.33 215.6-18.55 215.14-18.55 214.67-18.55 214.67-18.65L214.67-18.65Q214.67-19.82 214.97-19.87L214.97-19.87Q220.14-20.65 221.7-21.14L221.7-21.14Q221.75-21.14 221.85-21.17 221.95-21.19 221.95-21.19L221.95-21.19Q222.14-21.19 222.19-20.78 222.24-20.36 222.19-20.17L222.19-20.17Q222-18.8 222-18.21L222-18.21Q222-18.02 222.09-18.02L222.09-18.02Q222.14-18.02 222.24-18.12L222.24-18.12Q223.36-19.29 225.29-20.34 227.22-21.39 228.98-21.39ZM257.15-32.37L257.59-32.23 267.36-6.45Q268.23-4.15 268.77-2.93L268.77-2.93Q269.06-2.2 270.29-1.73 271.51-1.27 272.09-1.27L272.09-1.27Q272.29-1.27 272.29-0.34L272.29-0.34Q272.29-0.15 272.19 0.15L272.19 0.15Q267.31-0.1 266.82-0.1L266.82-0.1Q266.77-0.1 261.15 0.15L261.15 0.15Q260.96-0.05 260.98-0.66 261.01-1.27 261.2-1.27L261.2-1.27Q261.79-1.27 262.67-1.51 263.55-1.76 263.69-2.15L263.69-2.15Q263.79-2.54 263.79-2.93L263.79-2.93Q263.79-3.56 263.62-4.42 263.45-5.27 263.3-5.76L263.3-5.76 263.11-6.3 261.11-11.82Q260.96-12.01 260.81-12.01L260.81-12.01Q258.91-12.16 257.1-12.16L257.1-12.16Q254.56-12.16 250.9-11.91L250.9-11.91 250.66-11.77 248.56-6.4Q247.73-3.96 247.73-3.03L247.73-3.03Q247.73-2.34 248.12-2.05L248.12-2.05Q248.56-1.71 249.53-1.49 250.51-1.27 250.95-1.27L250.95-1.27Q251.1-1.27 251.12-0.68 251.14-0.1 251.05 0.15L251.05 0.15Q246.16-0.1 246.02-0.1L246.02-0.1Q245.04-0.1 244.31-0.05 243.58 0 242.67 0.05 241.77 0.1 240.94 0.15L240.94 0.15Q240.74-0.05 240.74-0.59L240.74-0.59Q240.74-1.27 240.94-1.27L240.94-1.27Q241.53-1.27 242.45-1.51 243.38-1.76 243.72-2.2L243.72-2.2Q244.75-3.52 246.02-6.79L246.02-6.79 254.51-28.61Q254.61-28.86 254.78-29.39 254.95-29.93 255.05-30.2 255.15-30.47 255.34-30.88 255.54-31.3 255.69-31.49 255.83-31.69 256.05-31.93 256.27-32.18 256.54-32.28 256.81-32.37 257.15-32.37L257.15-32.37ZM251.93-14.6L251.93-14.6Q254.46-14.5 255.39-14.5L255.39-14.5Q257.54-14.5 259.84-14.65L259.84-14.65 259.98-14.89 256.03-25.68 251.83-14.79Q251.83-14.6 251.93-14.6ZM287.47-21.34L287.47-21.34Q290.35-21.34 291.28-19.92L291.28-19.92Q291.28-18.21 290.74-17.43 290.2-16.65 289.42-16.65L289.42-16.65Q288.54-16.65 287.81-17.48 287.08-18.31 285.81-18.31L285.81-18.31Q284.3-18.31 283.17-16.89 282.05-15.48 282.05-13.92L282.05-13.92 282.05-6.59Q282.05-3.76 282.44-2.25L282.44-2.25Q282.54-1.9 283.73-1.59 284.93-1.27 285.42-1.27L285.42-1.27Q285.57-1.27 285.61-0.68 285.66-0.1 285.57 0.15L285.57 0.15Q280.68-0.1 280.29-0.1L280.29-0.1Q280-0.1 274.97 0.15L274.97 0.15Q274.77-0.05 274.77-0.66 274.77-1.27 274.97-1.27L274.97-1.27Q275.56-1.27 276.7-1.59 277.85-1.9 277.95-2.25L277.95-2.25Q278.29-3.66 278.29-5.66L278.29-5.66 278.29-14.89Q278.29-16.8 277.61-17.53L277.61-17.53Q277.12-18.12 276.41-18.33 275.7-18.55 275.24-18.55 274.77-18.55 274.77-18.65L274.77-18.65Q274.77-19.82 275.07-19.87L275.07-19.87Q280.24-20.65 281.81-21.14L281.81-21.14Q281.85-21.14 281.95-21.17 282.05-21.19 282.05-21.19L282.05-21.19Q282.25-21.19 282.29-20.78 282.34-20.36 282.29-20.17L282.29-20.17 282-17.72Q282.88-19.04 284.42-20.19 285.96-21.34 287.47-21.34ZM310.22 4.15L310.22 4.15Q310.22 2.1 308.22 1.39 306.22 0.68 300.26 0.68L300.26 0.68Q300.16 0.68 299.97 0.78L299.97 0.78Q299.92 0.83 299.53 1 299.14 1.17 299.04 1.22 298.94 1.27 298.6 1.49 298.26 1.71 298.14 1.78 298.01 1.86 297.72 2.08 297.43 2.29 297.33 2.47 297.23 2.64 297.04 2.88 296.84 3.13 296.77 3.37 296.7 3.61 296.62 3.93 296.55 4.25 296.55 4.59L296.55 4.59Q296.55 6.69 298.72 7.98 300.9 9.28 303.53 9.28L303.53 9.28Q306.46 9.28 308.34 7.71 310.22 6.15 310.22 4.15ZM297.72-14.45L297.72-14.45Q297.72-12.21 299.11-10.64 300.5-9.08 302.36-9.08L302.36-9.08Q304.26-9.08 305.51-10.55 306.75-12.01 306.75-14.06L306.75-14.06Q306.75-16.31 305.36-17.87 303.97-19.43 302.12-19.43L302.12-19.43Q300.21-19.43 298.97-17.97 297.72-16.5 297.72-14.45ZM302.31-21.09L302.31-21.09Q304.12-21.09 306.46-20.46 308.81-19.82 310.32-19.82L310.32-19.82 313.15-19.82Q313.44-19.73 313.44-18.6L313.44-18.6Q313.44-17.92 313.15-17.92L313.15-17.92 309.68-17.92Q309.49-17.92 309.49-17.77L309.49-17.77 309.98-16.6Q310.51-15.43 310.51-14.26L310.51-14.26Q310.51-11.62 308.17-9.52 305.83-7.42 302.41-7.42L302.41-7.42Q300.85-7.42 299.67-7.62L299.67-7.62Q299.04-7.28 298.33-6.4 297.62-5.52 297.62-4.83 297.62-4.15 298.01-3.74 298.41-3.32 299.14-3.15 299.87-2.98 300.55-2.91 301.24-2.83 302.16-2.83L302.16-2.83Q302.41-2.83 302.51-2.83L302.51-2.83Q308.56-2.73 311-1.59 313.44-0.44 313.44 1.86L313.44 1.86Q313.44 5.62 310.27 8.33 307.1 11.04 302.12 11.08L302.12 11.08Q298.65 11.13 295.89 9.77 293.13 8.4 293.13 5.66L293.13 5.66Q293.13 2.64 297.92 0.49L297.92 0.49Q296.6 0.29 295.48-0.73 294.35-1.76 294.35-3.22L294.35-3.22Q294.35-4.49 295.45-5.86 296.55-7.23 297.92-8.11L297.92-8.11Q296.45-8.64 295.21-10.42 293.96-12.21 293.96-14.26L293.96-14.26Q293.96-17.14 296.38-19.12 298.8-21.09 302.31-21.09ZM325.84-19.48L325.84-19.48Q323.3-19.48 321.96-17.31 320.62-15.14 320.62-13.72L320.62-13.72Q320.62-13.38 320.91-13.38L320.91-13.38 330.43-13.38Q330.68-13.38 330.68-13.87L330.68-13.87Q330.68-15.43 329.36-17.46 328.04-19.48 325.84-19.48ZM326.33-21.29L326.33-21.29Q328.58-21.29 330.29-20.43 332-19.58 332.9-18.24 333.8-16.89 334.22-15.5 334.63-14.11 334.63-12.74L334.63-12.74Q334.63-11.77 334.34-11.55 334.05-11.33 333.22-11.33L333.22-11.33 320.91-11.33Q320.52-11.33 320.52-11.08L320.52-11.08Q320.52-8.01 322.38-5.42 324.23-2.83 327.75-2.83L327.75-2.83Q328.77-2.83 329.7-3.03 330.63-3.22 331.29-3.49 331.95-3.76 332.41-4.03 332.88-4.3 333.22-4.54L333.22-4.54 333.56-4.79Q333.85-4.79 333.85-4.15L333.85-4.15Q333.85-3.76 333.56-3.27L333.56-3.27Q332.58-1.9 330.68-0.81 328.77 0.29 326.53 0.29L326.53 0.29Q322.47 0.29 319.57-2.76 316.66-5.81 316.66-10.21L316.66-10.21Q316.66-15.33 319.42-18.31 322.18-21.29 326.33-21.29ZM351.57-21.39L351.57-21.39Q354.99-21.39 356.36-18.95 357.73-16.5 357.73-11.04L357.73-11.04 357.73-6.59Q357.73-3.76 358.12-2.25L358.12-2.25Q358.21-1.9 359.39-1.59 360.56-1.27 361.05-1.27L361.05-1.27Q361.19-1.27 361.24-0.68 361.29-0.1 361.19 0.15L361.19 0.15Q356.31-0.1 355.97-0.1L355.97-0.1Q355.87-0.1 350.84 0.15L350.84 0.15Q350.65-0.05 350.65-0.66 350.65-1.27 350.84-1.27L350.84-1.27Q351.43-1.27 352.48-1.59 353.53-1.9 353.62-2.25L353.62-2.25Q353.97-3.66 353.97-5.66L353.97-5.66 353.97-10.55Q353.97-15.09 352.79-16.75 351.62-18.41 348.99-18.41L348.99-18.41Q347.42-18.41 345.98-17.26 344.54-16.11 344.54-15.19L344.54-15.19 344.54-6.59Q344.54-3.76 344.93-2.25L344.93-2.25Q345.03-1.9 346.2-1.59 347.37-1.27 347.86-1.27L347.86-1.27Q348.01-1.27 348.06-0.68 348.11-0.1 348.01 0.15L348.01 0.15Q343.13-0.1 342.78-0.1L342.78-0.1Q342.49-0.1 337.46 0.15L337.46 0.15Q337.27-0.05 337.27-0.66 337.27-1.27 337.46-1.27L337.46-1.27Q338.05-1.27 339.2-1.59 340.34-1.9 340.44-2.25L340.44-2.25Q340.78-3.66 340.78-5.66L340.78-5.66 340.78-14.89Q340.78-16.8 340.1-17.53L340.1-17.53Q339.61-18.12 338.9-18.33 338.19-18.55 337.73-18.55 337.27-18.55 337.27-18.65L337.27-18.65Q337.27-19.82 337.56-19.87L337.56-19.87Q342.74-20.65 344.3-21.14L344.3-21.14Q344.35-21.14 344.44-21.17 344.54-21.19 344.54-21.19L344.54-21.19Q344.74-21.19 344.79-20.78 344.84-20.36 344.79-20.17L344.79-20.17Q344.59-18.8 344.59-18.21L344.59-18.21Q344.59-18.02 344.69-18.02L344.69-18.02Q344.74-18.02 344.84-18.12L344.84-18.12Q345.96-19.29 347.89-20.34 349.82-21.39 351.57-21.39ZM366.27-5.86L366.27-18.26 363.44-18.26Q363.19-18.26 363.19-19.29L363.19-19.29Q363.19-19.58 363.24-19.63L363.24-19.63Q364.66-20.26 366.32-22.22L366.32-22.22Q366.85-22.85 367.37-23.66 367.88-24.46 368.22-25.05 368.56-25.63 368.56-25.68L368.56-25.68Q370.03-25.68 370.03-25.44L370.03-25.44 370.03-20.61Q371.3-20.61 373.89-20.58 376.47-20.56 376.62-20.56L376.62-20.56Q377.01-20.56 377.01-20.12L377.01-20.12Q377.01-19.24 376.52-18.26L376.52-18.26 370.03-18.26 370.03-6.3Q370.03-4.35 371.03-3.17 372.03-2 373.64-2L373.64-2Q375.11-2 376.67-2.93L376.67-2.93Q376.82-3.03 377.11-2.51 377.4-2 377.35-1.95L377.35-1.95Q376.62-1.17 375.11-0.42 373.59 0.34 371.98 0.34L371.98 0.34Q369.54 0.34 367.9-1.27 366.27-2.88 366.27-5.86L366.27-5.86ZM382.55-27.22Q381.84-27.93 381.84-28.96 381.84-29.98 382.55-30.69 383.26-31.4 384.28-31.4 385.31-31.4 386.02-30.69 386.73-29.98 386.73-28.96 386.73-27.93 386.02-27.22 385.31-26.51 384.28-26.51 383.26-26.51 382.55-27.22ZM386.53-16.65L386.53-6.59Q386.53-3.76 386.92-2.25L386.92-2.25Q387.02-1.9 388.19-1.59 389.36-1.27 389.85-1.27L389.85-1.27Q390-1.27 390.05-0.68 390.09-0.1 390 0.15L390 0.15Q385.11-0.1 384.77-0.1 384.43-0.1 379.45 0.15L379.45 0.15Q379.25-0.05 379.25-0.66 379.25-1.27 379.45-1.27L379.45-1.27Q380.04-1.27 381.18-1.59 382.33-1.9 382.43-2.25L382.43-2.25Q382.77-3.66 382.77-5.66L382.77-5.66 382.77-14.89Q382.77-16.8 382.09-17.53L382.09-17.53Q381.6-18.12 380.89-18.33 380.18-18.55 379.72-18.55 379.25-18.55 379.25-18.65L379.25-18.65Q379.25-19.82 379.55-19.87L379.55-19.87Q384.72-20.65 386.29-21.14L386.29-21.14 386.38-21.19Q386.48-21.19 386.53-21.19L386.53-21.19Q386.73-21.19 386.77-20.78 386.82-20.36 386.77-20.17L386.77-20.17Q386.53-18.21 386.53-16.65L386.53-16.65ZM406.55-21.39L406.55-21.39Q409.96-21.39 411.33-18.95 412.7-16.5 412.7-11.04L412.7-11.04 412.7-6.59Q412.7-3.76 413.09-2.25L413.09-2.25Q413.19-1.9 414.36-1.59 415.53-1.27 416.02-1.27L416.02-1.27Q416.17-1.27 416.21-0.68 416.26-0.1 416.17 0.15L416.17 0.15Q411.28-0.1 410.94-0.1L410.94-0.1Q410.84-0.1 405.81 0.15L405.81 0.15Q405.62-0.05 405.62-0.66 405.62-1.27 405.81-1.27L405.81-1.27Q406.4-1.27 407.45-1.59 408.5-1.9 408.6-2.25L408.6-2.25Q408.94-3.66 408.94-5.66L408.94-5.66 408.94-10.55Q408.94-15.09 407.77-16.75 406.6-18.41 403.96-18.41L403.96-18.41Q402.4-18.41 400.96-17.26 399.52-16.11 399.52-15.19L399.52-15.19 399.52-6.59Q399.52-3.76 399.91-2.25L399.91-2.25Q400-1.9 401.18-1.59 402.35-1.27 402.84-1.27L402.84-1.27Q402.98-1.27 403.03-0.68 403.08-0.1 402.98 0.15L402.98 0.15Q398.1-0.1 397.76-0.1L397.76-0.1Q397.46-0.1 392.44 0.15L392.44 0.15Q392.24-0.05 392.24-0.66 392.24-1.27 392.44-1.27L392.44-1.27Q393.02-1.27 394.17-1.59 395.32-1.9 395.41-2.25L395.41-2.25Q395.76-3.66 395.76-5.66L395.76-5.66 395.76-14.89Q395.76-16.8 395.07-17.53L395.07-17.53Q394.58-18.12 393.88-18.33 393.17-18.55 392.7-18.55 392.24-18.55 392.24-18.65L392.24-18.65Q392.24-19.82 392.53-19.87L392.53-19.87Q397.71-20.65 399.27-21.14L399.27-21.14Q399.32-21.14 399.42-21.17 399.52-21.19 399.52-21.19L399.52-21.19Q399.71-21.19 399.76-20.78 399.81-20.36 399.76-20.17L399.76-20.17Q399.56-18.8 399.56-18.21L399.56-18.21Q399.56-18.02 399.66-18.02L399.66-18.02Q399.71-18.02 399.81-18.12L399.81-18.12Q400.93-19.29 402.86-20.34 404.79-21.39 406.55-21.39ZM424.17-3.15Q425-2.44 426.32-2.44 427.64-2.44 428.86-3.25 430.08-4.05 430.08-4.88L430.08-4.88 430.08-9.91Q429.69-9.72 428.18-9.23 426.66-8.74 425.81-8.37 424.95-8.01 424.15-7.15 423.34-6.3 423.34-5.18L423.34-5.18Q423.34-3.86 424.17-3.15ZM428.76-21.29L428.76-21.29Q431.45-21.29 432.62-20 433.79-18.7 433.79-15.82L433.79-15.82 433.79-4.54Q433.79-3.52 434.33-2.83 434.86-2.15 435.79-2.15L435.79-2.15Q436.48-2.15 437.5-2.83L437.5-2.83Q437.7-2.83 437.7-2.44L437.7-2.44Q437.7-1.81 437.45-1.42L437.45-1.42Q435.45 0.29 434.03 0.29L434.03 0.29Q432.91 0.29 431.89-0.63 430.86-1.56 430.47-2.59L430.47-2.59Q430.42-2.59 430.1-2.27 429.79-1.95 429.25-1.54 428.71-1.12 428-0.68 427.3-0.24 426.34 0.05 425.39 0.34 424.42 0.34L424.42 0.34Q422.17 0.34 420.7-0.85 419.24-2.05 419.24-4.44L419.24-4.44Q419.24-5.52 419.78-6.47 420.31-7.42 421.05-8.03 421.78-8.64 423.05-9.28 424.32-9.91 425.22-10.23 426.12-10.55 427.59-11.04 429.05-11.52 429.64-11.77L429.64-11.77Q430.08-11.91 430.08-12.5L430.08-12.5 430.08-16.16Q430.08-17.72 429.1-18.58 428.13-19.43 426.76-19.43L426.76-19.43Q425.29-19.43 424.32-18.43 423.34-17.43 423.34-15.82L423.34-15.82Q423.34-14.11 421.34-14.11L421.34-14.11Q419.97-14.11 419.43-15.04L419.43-15.04Q419.43-17.14 422.51-19.21 425.59-21.29 428.76-21.29Z" fill="#ffffff" data-fill-palette-color="primary"></path></g></svg></g></svg></g></svg></g></svg></g><g transform="matrix(1,0,0,1,404.82110299646035,0)"><svg viewBox="0 0 24.618084053119205 54.44909410998247" height="54.44909410998247" width="24.618084053119205"><g><svg xmlns="http://www.w3.org/2000/svg" xmlns:xlink="http://www.w3.org/1999/xlink" version="1.1" x="0" y="0" viewBox="49.216999999999935 16.975 99.99700000000007 221.1685544645807" enable-background="new 0 0 198.425 255.118" xml:space="preserve" height="54.44909410998247" width="24.618084053119205" class="icon-icon-0" data-fill-palette-color="accent" id="icon-0"><g fill="#ffffff" data-fill-palette-color="accent"><path d="M85.812 16.975l2.581 1.613h4.679l2.419 3.71 2.26-3.872 5.322-0.323 6.131 7.26 4.195 3.227 4.518 0.968 6.936 4.194 4.68 2.904-2.42 4.194-0.646 1.452-0.807 2.097-1.291 2.42 1.129 1.129h4.035l5.322 0.807c0 0 0.646-0.968 1.936-0.968 1.291 0 2.26 0.806 2.42-0.323 0.162-1.129 0.969-1.774 1.938-2.258 0.967-0.484 1.936-0.968 2.418-2.259 0.484-1.291 1.131-4.839 1.131-4.839s1.773-0.646 2.42-0.162c0.645 0.484 2.096 2.582 2.096 3.549s0 4.194-0.807 4.678-3.709 2.42-4.193 2.581c-0.484 0.162-5.809 4.033-6.615 5.324s-4.516 5.324-5.646 6.614c-1.129 1.291-3.549 3.549-4.033 6.13-0.482 2.581-1.289 5.324-1.451 6.614-0.16 1.291-0.162 5.324-0.484 6.614s-0.967 2.42-0.807 3.872c0.162 1.452 0.484 4.356 0.484 4.356s-1.289 0.968-0.967 1.774 3.225 2.097 3.225 2.097 3.551 1.774 3.711 2.581c0.162 0.807-1.936 2.743-1.291 4.033 0.646 1.291 1.131 2.42 2.26 2.42s1.129 0 1.129 0 0.807 1.452 0.484 2.258-1.291 3.065-2.098 4.033-2.42 2.581-2.58 3.549c-0.162 0.968 0.322 1.775-0.484 2.098s-8.066 3.227-10.486 3.872-11.455 0.968-11.455 0.968l-1.613-0.807 0.324 3.065 0.484 1.291-1.131 3.227v2.903c0 0 1.131 0.646 0.807 1.452-0.322 0.807-2.096 2.259-3.549 2.742-1.451 0.484-2.904 1.13-4.194 0.646-1.29-0.483-4.194-2.42-5.969-2.42s-0.483 1.633-0.483 2.591 0.02 4.192 0.058 4.762c0.038 0.57 0.607 1.672 1.025 1.823 0.417 0.151 1.481 1.064 1.976 1.14 0.493 0.075 1.519 0.418 1.709 0 0.189-0.418 0.076-0.95 0.076-1.292s0.911-0.797 1.557-0.569 1.139 2.886 1.025 3.532c-0.114 0.646-1.747 1.747-2.165 1.747-0.417 0-1.253-1.86-1.558-2.013-0.304-0.152-1.746-0.494-2.088-0.304-0.342 0.189-1.406 0.722-1.254 1.329s2.545 1.86 3.19 1.86-3.495 1.976-3.95 2.697-1.155 2.398-1.034 3.608c0.121 1.209 0.303 2.903 0 3.629-0.302 0.727-1.149 0.848-1.573 1.573-0.423 0.726 0.424 2.844-0.121 2.844-0.544 0-2.056-0.182-2.843 0-0.787 0.181-1.331 0.726-1.331 0.726s0.484 0.545 0 0.604c-0.484 0.061-1.21-0.604-1.936 0-0.726 0.605-1.754 1.997-2.48 3.146s-1.149 1.814-1.149 2.782c0 0.969-0.061 2.844 1.149 3.933s2.117 2.662 3.206 3.024c1.089 0.363 3.207 0.484 3.449 0.484 0.242 0 1.573 0.907 1.573 1.331 0 0.423-0.182 3.024-0.484 3.206-0.303 0.182-0.424 2.117-0.424 2.299s-7.684 6.292-8.47 7.985c-0.786 1.694-0.483 3.63-0.483 4.719s-0.726 3.206-2.48 3.69-2.783 0.665-3.69 1.875c-0.907 1.21-1.271 3.872-1.089 5.808 0.182 1.937 3.448 9.801 3.63 10.164 0.182 0.362-5.747-1.876-6.836-2.359-1.089-0.484-2.843-0.787-4.295-0.787-1.452 0-6.836 0-6.836 0s-0.968-1.693-1.573-2.903 0-4.598 0-4.598 0.484-3.63-0.787-3.63-3.388 1.634-3.388 1.634-1.875-5.324-1.875-6.837c0-1.512 0-4.658 0.423-4.96 0.423-0.303 1.694-1.452 2.662-2.299 0.968-0.848 1.754-2.178 1.754-2.844 0-0.665 1.331-2.602 1.331-2.844 0-0.241-1.815-1.875-0.968-3.508 0.847-1.634 1.875-3.389 2.057-3.63 0.181-0.242 0.786-0.848 0.786-1.392 0-0.545 0-1.876 0.242-2.238 0.242-0.363 1.452-1.21 1.21-2.117-0.242-0.908-1.392-2.662-0.847-3.146 0.544-0.483 1.271-0.242 0.787-1.271s-1.392-1.451-0.484-2.238c0.907-0.786 2.722-2.178 1.089-3.267s-3.448-1.814-2.783-2.359c0.665-0.544 3.569 0.182 4.053 0 0.484-0.182 1.392-1.754 0.726-2.117s-3.629-0.907-3.629-0.907l0.121-2.48c0 0 0.666-0.363 0.484-0.968-0.181-0.605-0.302-1.028-0.302-1.028l0.968-0.848c0 0-2.419-1.331-1.815-1.814 0.605-0.484 0.787-1.452 0.242-1.755-0.544-0.302-1.149-2.299-1.149-2.299s0.726-1.814 0.303-2.601c-0.424-0.787 0.06-1.694 0.06-1.694l1.452-0.363c0 0-0.121-2.359-0.182-2.54-0.061-0.182-0.181-0.787-0.121-2.783 0.061-1.996-0.544-4.416 0.061-5.385 0.605-0.968 0.908-3.75 0.908-4.234 0-0.484 0.302-2.299 0.484-2.541 0.182-0.242 0.787-1.573 0.787-1.815s0.544-2.238 0.544-2.238 3.024-0.666 2.48-1.573c-0.544-0.907-2.299-6.292-1.936-8.832 0.363-2.541 1.331-4.477 1.936-5.263 0.605-0.787 2.541-0.968 2.359-2.238-0.181-1.271-0.907-4.598-0.847-4.961s2.117-4.9 2.117-4.9l1.271-1.997c0 0 0-3.388-0.121-3.811-0.121-0.424-1.028-2.42-1.089-2.964s-0.302-2.904-0.726-3.63c-0.423-0.726 0-1.694-0.666-2.42-0.665-0.726-1.149-2.299-1.149-2.843s-0.302-1.331 0.121-1.694c0.424-0.363 1.392 0.121 1.392-0.847 0-0.968-0.242-3.69 0.726-3.993 0.968-0.302 1.27 0.666 1.331-0.121 0.061-0.786-0.786-5.203-0.484-5.928 0.303-0.726 0.544-0.908 0.605-1.392s0.242-2.843 0.666-3.388 2.178-2.42 2.601-3.085c0.424-0.666 1.452-2.541 1.754-3.448 0.303-0.907 0.061-1.149 0.847-1.21s2.057 0.363 1.815-0.605c-0.242-0.968-1.452-2.722-1.331-3.569 0.121-0.847 0.726-0.363 0.726-1.452s-0.605-3.448-0.605-3.872c0-0.423 0.182-1.089 0.605-1.512s-1.028-1.936-0.544-2.662c0.484-0.726 3.146-2.057 4.053-2.602 0.907-0.544 1.754-0.484 2.117-1.271 0.363-0.786 1.028-2.541 1.028-3.146s0.242-2.541 0-2.843c-0.242-0.303-1.028-0.182-0.302-0.908s1.754-1.875 1.754-1.875 2.42-0.907 2.602-1.21C85.752 18.426 85.812 16.975 85.812 16.975z" fill="#ffffff" data-fill-palette-color="accent"></path><path d="M74.038 216.995v19.622c0 0 4.607-0.055 5.746 0s2.764 0.597 3.632 1.247c0.867 0.65 1.572-0.001 2.222-0.271s3.577-0.759 4.228-0.921c0.65-0.163 1.518-2.548 1.518-2.548s-3.252 0.704-3.74 0.054-3.307-1.788-3.686-2.385c-0.379-0.597-1.409-1.354-2.385-2.114-0.976-0.759-2.168-2.222-2.602-2.927-0.434-0.704-2.331-3.687-2.71-3.903-0.379-0.216-1.68-0.271-1.68-0.271l0.054-1.464 1.247-0.704L74.038 216.995z" fill="#ffffff" data-fill-palette-color="accent"></path></g><path d="M93.497 235.534c0 0.163 0 1.409 0 1.409s1.951-0.976 2.71-1.138c0.759-0.163 1.788-0.488 1.788-0.488s-0.704-0.759-1.246-0.759S93.497 234.45 93.497 235.534z" fill="#ffffff" data-fill-palette-color="accent"></path></svg></g></svg></g></svg></g><defs></defs></svg><rect width="395.52" height="50.1484409244048" fill="none" stroke="none" visibility="hidden"></rect></g></svg></g></svg>